PathFileType	3	(X/Y/Z)	results
DataRate	CameraRate	NumFrames	NumMarkers	Units	OrigDataRate	OrigDataStartFrame	OrigNumFrames
30.0	30.0	4	85	mm	30.0	257	410
Frame#	Time	head			nose			neck			shoulder_r			elbow_r			wrist_r			shoulder_l			elbow_l			wrist_l			hip_r			knee_r			ankle_r			hip_l			knee_l			ankle_l			heel_r			heel_l			mtoe_r			ltoe_r			mtoe_l			ltoe_l			asis_l			asis_r			psi_r			psi_l			mhnd_r			lhnd_r			mhnd_l			lhnd_l			l_lat_knee			r_med_wrist			l_lat_ankle			r_med_ankle			r_lat_knee			xiphoid			l_med_ankle			r_med_knee			l_med_elbow			navel			r_lat_elbow			r_lat_wrist			l_med_wrist			l_lat_elbow			l_med_knee			r_med_elbow			r_lat_ankle			l_lat_wrist			chin			T10			r_eye			l_eye			l_ear			r_ear			spinal_cord_8			spinal_cord_12			spinal_cord_27			spinal_cord_33			up_arm_r_0			up_arm_r_5			up_arm_l_0			up_arm_l_5			front_torso_11			front_torso_7			front_torso_4			front_torso_1			front_torso_10			thigh_r_2			thigh_r_3			thigh_l_1			thigh_l_5			shank_l_0			shank_l_4			shank_r_1			shank_r_2			foot_r_1			foot_r_3			foot_r_5			foot_r_6			foot_r_7			foot_l_1			foot_l_7			foot_l_0			foot_l_4			foot_l_5			foot_l_6			
		X1	Y1	Z1	X2	Y2	Z2	X3	Y3	Z3	X4	Y4	Z4	X5	Y5	Z5	X6	Y6	Z6	X7	Y7	Z7	X8	Y8	Z8	X9	Y9	Z9	X10	Y10	Z10	X11	Y11	Z11	X12	Y12	Z12	X13	Y13	Z13	X14	Y14	Z14	X15	Y15	Z15	X16	Y16	Z16	X17	Y17	Z17	X18	Y18	Z18	X19	Y19	Z19	X20	Y20	Z20	X21	Y21	Z21	X22	Y22	Z22	X23	Y23	Z23	X24	Y24	Z24	X25	Y25	Z25	X26	Y26	Z26	X27	Y27	Z27	X28	Y28	Z28	X29	Y29	Z29	X30	Y30	Z30	X31	Y31	Z31	X32	Y32	Z32	X33	Y33	Z33	X34	Y34	Z34	X35	Y35	Z35	X36	Y36	Z36	X37	Y37	Z37	X38	Y38	Z38	X39	Y39	Z39	X40	Y40	Z40	X41	Y41	Z41	X42	Y42	Z42	X43	Y43	Z43	X44	Y44	Z44	X45	Y45	Z45	X46	Y46	Z46	X47	Y47	Z47	X48	Y48	Z48	X49	Y49	Z49	X50	Y50	Z50	X51	Y51	Z51	X52	Y52	Z52	X53	Y53	Z53	X54	Y54	Z54	X55	Y55	Z55	X56	Y56	Z56	X57	Y57	Z57	X58	Y58	Z58	X59	Y59	Z59	X60	Y60	Z60	X61	Y61	Z61	X62	Y62	Z62	X63	Y63	Z63	X64	Y64	Z64	X65	Y65	Z65	X66	Y66	Z66	X67	Y67	Z67	X68	Y68	Z68	X69	Y69	Z69	X70	Y70	Z70	X71	Y71	Z71	X72	Y72	Z72	X73	Y73	Z73	X74	Y74	Z74	X75	Y75	Z75	X76	Y76	Z76	X77	Y77	Z77	X78	Y78	Z78	X79	Y79	Z79	X80	Y80	Z80	X81	Y81	Z81	X82	Y82	Z82	X83	Y83	Z83	X84	Y84	Z84	X85	Y85	Z85	
257	8.566666666666666	-239.20532020916983	1664.7903604846197	-1393.3266152422311	-341.9822223521479	1472.337069309083	-1459.5128292967074	-193.87783862968965	1333.8907095228649	-1365.7123784319137	-179.7053411504988	1293.593281981995	-1575.2582633053216	-122.40017100731467	1037.4147180786806	-1618.1427129411472	-163.244115012754	819.8053296282045	-1675.8060766904164	-191.92999647941733	1310.6613008357162	-1194.9556304218452	-168.21470268282962	1062.8403621047426	-1088.4049371975807	-193.81210720574234	837.9199200327248	-1048.9127511282315	-208.43769267211133	869.5185516251161	-1450.0911332594294	-165.44206071859037	479.3345840895892	-1437.7674188266333	-59.509811733229974	102.1296815420364	-1438.6789909522768	-208.4659394371417	869.6077739531137	-1251.8242546047763	-326.1108962792556	483.19428630098577	-1282.6294504081693	-58.554746182199246	201.14520747983929	-1311.1326143469537	-35.162219640144805	46.1327358950352	-1431.7664276232033	-0.011167422157128126	160.4978882865949	-1309.3974618562352	-259.56829480832175	33.74399103654071	-1445.7409103336834	-194.14362601051573	12.190702015920037	-1502.4226352275873	-200.7528071841335	58.74561718862262	-1335.804993378007	-151.48299845424896	71.45469994328113	-1252.0320315588938	-225.39191784799326	946.775456246271	-1207.8106333666792	-223.2329303749922	942.3843147833111	-1498.1128476041388	-80.4478409460552	901.3447144904146	-1400.4433945067947	-86.36059569838383	903.58624419186	-1301.5503717942693	-144.9403664383043	751.6134692817849	-1695.719156439178	-197.77952371044643	743.5774178127257	-1699.2529349131196	-198.03620191472558	774.1043788152948	-1007.3874513247838	-205.97710355653933	750.648723237622	-1054.742721635955	-324.95923139114603	482.30799371450865	-1233.165758087671	-136.12170268775228	825.9784713824836	-1683.2131724078895	-53.2951771147942	180.16588711593872	-1260.291918106725	-78.54355704603472	86.79836154790299	-1408.729974657864	-148.42000653361424	470.78563401755076	-1477.5426776953477	-263.64697134804146	1160.7103817651523	-1390.5640197023854	-55.90832805320767	191.1827322105397	-1344.8243709725689	-187.52576156747352	473.0127639041661	-1401.8072719948966	-135.04481454761935	1078.5456719537208	-1082.108170471042	-254.63601750350273	948.0514465320815	-1390.7719713718816	-136.0381690213409	1047.4440983458492	-1655.1200398369858	-188.50447475198868	827.5219101514276	-1658.199063211583	-201.81264812313742	853.5309950375507	-1022.1854995729285	-208.68227998056017	1069.9486254804901	-1091.602144270148	-334.64997259158	498.0454780460011	-1329.1488034260274	-111.71996001137015	1040.1686631595344	-1582.313401906928	-45.17584564719223	87.16520991085264	-1485.3718293461588	-195.78854274823286	840.3342827997203	-1079.526026087809	-317.9026531127741	1392.4140879307488	-1452.0544766833673	-82.95668444081069	1192.021573690682	-1341.3262721626204	-326.97267371635866	1508.0916691227137	-1489.3238411002749	-362.3424893368751	1503.4946783151943	-1424.4704688313614	-293.20132438178285	1499.9043976345613	-1322.901100393293	-202.82656404547396	1508.110911353436	-1482.5267056459872	-154.81084637451647	1396.0351989470082	-1353.4628522189043	-94.41772373270595	1288.4273262416032	-1339.2557906838074	-78.18433651873616	1044.5758156626878	-1357.0174947227495	-94.06125065592599	1181.3728853095872	-1344.4607159433222	-197.30110062719066	1157.0723779153186	-1598.0917177407423	-109.69921128213284	1151.3989619683946	-1617.2339713046736	-217.10818193847535	1259.2486197292517	-1170.1283411945972	-140.14766602003849	1144.7222567685146	-1095.9965900150748	-207.71154864335918	980.1820553043394	-1429.993975735109	-282.48598240969704	1073.7474589695316	-1399.069186850725	-291.53330703565183	1202.1368622037505	-1326.4767411334283	-247.37271504086615	1009.2533168305329	-1311.5461150638628	-263.9157224529794	1244.5425641973563	-1475.509750353842	-194.75515307048082	657.1940722863534	-1428.1209300583125	-148.07414749863136	623.2117870348233	-1513.681227118144	-283.648698950489	602.0070049312642	-1321.6823156755215	-263.6054149938907	764.9580987743846	-1159.9385770272959	-140.14632723595997	246.98406254173327	-1241.817008643251	-218.92482451596044	382.6421764462627	-1341.5764957029917	-103.0759843384219	322.5316303513694	-1494.4859018036127	-125.60260725724412	278.04124669234574	-1400.72638623441	-239.5381788970587	20.63332732981429	-1464.3466277729958	-220.76410785926427	15.891921751365272	-1486.5126085610682	-178.42456421555775	49.575536307520345	-1430.2464999855072	-161.90640248253922	45.832517200649356	-1466.2474511138691	-147.21152900222418	24.392954970561554	-1491.0204912583988	-176.10585377755785	58.834280893514254	-1284.370268680141	-97.12927382589365	132.7421993443475	-1259.4887960818971	-170.26789057799743	62.276962920842045	-1268.9512419780351	-182.687284730607	54.86539317058127	-1303.2635245399763	-138.09351242367143	95.01854827262434	-1292.6255269584071	-114.40395966919759	119.13018701401118	-1321.3158479055705	
258	8.6	-279.61967724120666	1667.2233245602429	-1396.2064667045415	-391.86349914637526	1474.9036506961202	-1445.1599478696883	-239.84863632751154	1334.3897134633448	-1357.4952736471982	-238.19218960649764	1299.3866178662067	-1572.6902909752973	-182.83622713698352	1042.5720207317063	-1614.3123436275794	-235.89173092524936	824.8353632470747	-1660.38835395599	-228.71217838781482	1311.2455123907118	-1192.5630252325407	-192.13861439731096	1069.2104564185297	-1076.7524507692992	-216.1514687034371	843.5079540839467	-1040.8940011556022	-247.88547227794416	871.5698701123043	-1442.1573599818594	-191.96294359487592	482.81020732395353	-1436.7912379298639	-64.52802802096744	112.34206898336363	-1441.231014036154	-243.2391762861648	881.1415007735819	-1244.176149383471	-394.1874963911024	507.6935457864096	-1263.7358483974272	-194.67302621774337	173.4786006731467	-1284.8250239981862	-36.28639351329567	59.12396923481516	-1434.4086782210595	-145.5349917301938	123.54923537720624	-1281.3630103645417	-257.50330622427106	20.054504069184304	-1450.013426244534	-189.5081290437807	6.113274657894498	-1506.0495529357388	-358.90166905681104	51.611768391657755	-1306.8139470722163	-309.41258660072225	61.30829441750027	-1222.767816468985	-255.8768680237531	960.981645116213	-1203.6252074826164	-260.7432229065824	942.6241869679195	-1493.346869189014	-117.54095615319108	900.2046109971957	-1396.8852550882789	-121.02328017994637	907.4247704562835	-1298.115027883206	-221.66652395359037	755.3135173563819	-1678.990617394266	-274.879897375388	749.2445146661499	-1678.251462359977	-215.24049386144273	778.3679513850533	-1001.2636217229549	-230.96911578911852	756.7043971980203	-1047.5134670843092	-393.8258638248734	506.5078257680684	-1214.2896068699233	-209.2050321248538	829.669563707083	-1670.0345246709971	-194.5433651362454	152.74506296017816	-1233.6129654005665	-82.66795830254085	95.65150346823408	-1411.4544399793042	-175.3292872752727	475.5026301875259	-1476.9422848977474	-304.01944978932835	1159.4137260663763	-1384.7399503837746	-194.00244810764517	162.59353302951706	-1318.328076610096	-212.82381960418152	475.32563548384906	-1400.3642163714173	-158.18874472852025	1084.5044263165234	-1076.5325830940794	-287.9786615717511	947.2023646080812	-1388.4942078235722	-199.02582188299604	1051.813287963717	-1650.4565293929584	-259.43740926983475	834.1590994486793	-1641.2491980888426	-219.54971530590623	858.3118536037415	-1012.7629369646711	-232.5169640651591	1077.021402637665	-1074.1157196691622	-402.97576105796	520.5399165704847	-1310.5896778920123	-169.73273861902155	1046.0793145734667	-1579.3639798864792	-49.32861538817579	98.6813388981977	-1488.0496156960899	-222.81979488768272	847.0157395121043	-1070.7291635661788	-370.91994966759887	1394.8150048249238	-1432.1095774301778	-124.12823400708788	1195.9047895219019	-1336.1469562644927	-376.1424083431234	1507.6158480156698	-1477.9491813666486	-410.04031492627655	1509.4757302706553	-1412.179972435406	-338.58991147252794	1510.6281767307412	-1312.163778121314	-251.96998057683413	1502.8113296067197	-1473.8769887697242	-202.7755577116045	1397.5904035441542	-1344.4769036515088	-138.75827448076035	1291.8307978875264	-1332.4221374916112	-114.58837070039755	1048.9720258204022	-1354.2851835676101	-134.8957697702084	1184.9454728142862	-1339.384894461867	-256.7111878863694	1162.380738719513	-1591.5415620770104	-170.60663625334132	1156.5895645434746	-1616.545022369026	-250.4398933558793	1261.8461646984154	-1161.2387544224912	-164.49335082682808	1149.9114566766793	-1093.2789256721203	-242.41513713687556	981.503615105651	-1427.4818581698933	-320.0290472793868	1072.0224163955806	-1394.5505532902664	-332.8177609772619	1198.8488996564718	-1319.8053322619378	-282.1971471838615	1007.3212302569623	-1308.3227859644992	-307.64879082169824	1244.554742758769	-1468.2954370657937	-226.71272324926142	659.5246760353368	-1423.714567011303	-180.81340511752822	628.362785357682	-1510.7586109747924	-342.78503059167974	619.6529705345201	-1306.2820190713803	-306.67050241863814	784.3112432053497	-1149.1221536341857	-264.7988839319645	237.26070086629852	-1217.16966426147	-311.1542587835642	385.1124049213747	-1319.8934861852563	-120.65338428048491	330.40958158558806	-1494.9520161247892	-140.64455937987938	283.78743449982755	-1401.6545453268914	-235.9015605890462	9.313516368324347	-1468.3781624637684	-216.51207542385558	6.712608676928279	-1490.3681719839662	-178.94970759375545	45.51225841929316	-1434.0054757866778	-161.80293848999156	43.555629122978985	-1469.853603385177	-144.4566151675911	23.875373122315864	-1494.3707452285048	-335.21397042656764	50.784283587696	-1254.9369841625994	-246.38059208466268	113.31200053274516	-1232.1843189284436	-329.1331346104578	54.14043778306326	-1239.592932445553	-342.06208118665796	46.83294394594357	-1273.7389179510492	-292.09381438777655	80.39712682846212	-1264.2170837631597	-264.6703149652639	99.12942298959778	-1293.5897463681795	
259	8.633333333333333	-324.6285227455655	1666.317111181066	-1388.5265116209493	-442.3858997455855	1475.9118261451647	-1431.665860500371	-284.36000194692696	1332.246065937795	-1351.6324645884556	-291.1582962369782	1300.214036558492	-1568.3105599392834	-238.48686907105738	1043.9376212291797	-1616.2535975520004	-300.43210503314043	826.4393704816213	-1650.958581141453	-264.36976728377465	1304.7469233149254	-1189.0177586715142	-215.73586934275818	1065.1733974021276	-1072.5276186908984	-237.84610117495598	839.7037479689455	-1034.0745307326843	-286.1583216441249	872.3858505246941	-1438.9387953920898	-214.84045460852428	486.1701049601363	-1434.5993706080121	-76.97309217952908	119.47709276030139	-1440.5015757407873	-278.014444621696	883.7699794033883	-1241.1665961155502	-442.75101512833794	518.3752867275862	-1244.9745056942097	-324.74807856464633	146.99119091402486	-1254.9528328198305	-47.06961511166285	67.70723688967672	-1433.4856040665284	-287.7256645044283	88.01829083066025	-1250.039507383275	-265.1562743787663	15.659352724124329	-1454.368145630798	-195.1740329977838	6.0123176436916035	-1508.8398823142197	-510.6002073079205	58.808890240362096	-1278.7072142375998	-460.92977387475264	55.55960552600405	-1194.2724218822143	-288.538690605778	964.2103713311559	-1201.2025825142284	-298.6017308400994	943.1665612881542	-1490.6075102911147	-154.57994861555375	899.0961106945588	-1396.1264314810821	-156.27189625498426	907.324680932451	-1297.3881764306248	-289.83814598582336	756.3936094302364	-1670.0123777421015	-342.5702943959579	751.25633658834	-1662.1401984665838	-232.9557806256243	774.5029240054535	-994.8373784385042	-254.32220049454995	753.0802870703443	-1038.8861474614714	-442.9009211852976	516.8409895290963	-1195.3898272070307	-275.1877648760143	830.6573651107378	-1664.1316524520355	-326.5564306481034	129.1921037901187	-1202.6795728851848	-95.19333404537447	101.95818943107749	-1411.2545720841792	-197.05595212169706	479.77290826850924	-1474.4281577927898	-344.726947686137	1155.9578306552949	-1379.1106712162014	-328.3174641278955	134.68045312840448	-1287.7719450686272	-236.37939774912695	477.5480915253996	-1398.8054847683711	-181.9097618897987	1080.1681973357283	-1076.7106722520352	-323.51034356937834	944.2526279558501	-1385.0961642859784	-259.276449325912	1052.873766817608	-1650.044791931382	-321.09458449938614	836.4731163652848	-1629.0491265927933	-237.70383712762393	854.5057756089642	-1005.7383342313431	-255.4669435988348	1073.3998215243955	-1065.306674275494	-454.5715758341141	528.4809056388535	-1291.736244076308	-221.06452237637004	1047.7090436562514	-1583.2743789721164	-60.51720748607084	106.76472913912872	-1487.1622532149954	-247.97956206293614	843.3270041962016	-1062.9032149468205	-423.55689559643827	1395.6561773844028	-1416.5782803232546	-164.82016156251618	1196.5198367743646	-1333.9221962311938	-425.98151162857357	1507.2902100263998	-1465.410007523873	-459.4060679076764	1511.8407665250581	-1399.5297559361504	-387.32988157583515	1513.7072583465913	-1299.9744096017675	-301.96370758313526	1499.1870930655693	-1461.8912375215739	-248.60179052720898	1396.2410126603165	-1338.8178068817208	-181.74358788751658	1292.0156038196335	-1329.0367527536812	-152.02040572524567	1050.029524175927	-1353.5689744884273	-175.37789372647242	1185.3226806607113	-1337.034860588069	-310.28244078970994	1162.9411053855902	-1584.4147240754533	-228.01929961001878	1158.0834079354177	-1620.2181165902578	-282.51450636049594	1256.2873244774187	-1154.146067914042	-189.7691947814653	1145.2187500798243	-1094.172704511748	-279.6358798670367	980.0091327608608	-1424.7086777522136	-358.7658346122062	1068.2797717656758	-1389.370485560768	-373.1315846191451	1194.1119532372195	-1313.2439891630247	-317.5479790205113	1003.8184789391269	-1304.5261921868428	-352.21129691274933	1241.6836782016285	-1461.807392877519	-257.01630565057343	661.2176210867618	-1421.3232333798908	-207.7927029307281	632.5390265325574	-1507.3990811814458	-390.2308724263962	625.0462155974603	-1292.2768199317097	-342.28512912930574	792.4694169664215	-1141.3248191122518	-375.07569267143083	228.1216289959521	-1188.2593308780217	-392.4506988726828	377.65578089080776	-1297.3408478130398	-138.19017089043624	336.4728571076997	-1492.987281057351	-158.61369740917962	288.2817518241583	-1400.5849722435864	-242.53552400769442	6.296163790692387	-1472.2538973155201	-222.52181606777248	4.942964593071627	-1493.792182319572	-188.64429220109213	45.66064392270253	-1436.4556164437402	-170.58607489532125	44.876672335701926	-1471.8987330886912	-151.53895453006575	26.363962387977487	-1496.0603644368773	-487.9634151009129	51.4160285970108	-1226.8812331709303	-389.1289080891906	95.04680711321271	-1201.4477186856348	-481.49669836991836	52.93730373729642	-1211.4039092753214	-495.2648120547173	49.59601081070587	-1245.8390694903183	-439.94498199706476	72.69390082549964	-1234.8731557110682	-409.21384768773845	87.07852100102357	-1263.4105107921096	
260	8.666666666666666	-380.6914870822156	1666.0998529197173	-1372.6659599358147	-489.4860470680944	1471.422063182875	-1420.060872425711	-324.93262465419724	1327.2112972970467	-1348.6756649334748	-333.92988998474124	1296.7535743188962	-1560.7313864092466	-288.2789450079081	1042.4293546424417	-1623.862976425308	-351.615652646321	824.3116727960514	-1651.4360711749594	-303.34524007863325	1292.725666245836	-1184.293740117751	-243.91170613628057	1055.2078721272005	-1068.6060762115615	-265.3849129248579	829.7619065659904	-1029.6563246962264	-325.02373411444734	871.2059260095859	-1438.761083087581	-231.37736306364448	490.0137109254482	-1429.8513022584866	-90.03001969016478	124.69509307366478	-1438.1727694889603	-315.75631797940633	881.5892870003752	-1240.9832664784442	-475.69843449288396	517.0632352348395	-1232.329148693922	-453.14700647468027	127.93349032719597	-1227.8702928329158	-60.120536002355436	72.27435763988917	-1431.5328872832222	-430.9164092794672	62.45774029129246	-1221.464999468969	-278.9894060952881	26.447342202404613	-1458.0499779780064	-208.29868604106846	17.107646141795303	-1511.653538191565	-655.2718353024692	81.46240517251564	-1246.9905524656317	-606.3789448818786	65.96411328683236	-1163.4667104584712	-324.1064596999022	962.1051235587507	-1200.6594027411288	-335.92324270381164	942.481075320445	-1490.0977887779632	-192.6405212696214	894.4658155820772	-1396.418819983287	-193.7064164851359	902.3370306693196	-1297.6426948020287	-343.65745441938765	754.9961425882148	-1674.1012896263694	-393.6529211891149	748.3859746216783	-1656.0513246214805	-257.32838003565524	764.1371246379758	-991.668207140129	-283.69262871308985	743.4494896232549	-1033.2938659683027	-475.7774959391174	514.3384954054491	-1182.3315400527192	-329.5895909107652	829.446221984111	-1669.2430081791308	-454.9182856914296	113.3425283604576	-1174.61113641152	-108.48709902884495	106.66198299590634	-1409.3904906770358	-211.0867414328234	484.5972842728418	-1468.6904893348715	-384.74257059959325	1150.0654737138273	-1371.4548095488374	-462.3128301362236	115.53081990689712	-1259.5491556593413	-254.99104118888084	479.7577344766318	-1395.7585821774944	-210.64293303758853	1069.8118886360783	-1076.758311848452	-361.4718148770996	938.5697826198307	-1377.2087511826694	-315.5356404911324	1051.61404915803	-1652.6139781596105	-367.69178116078615	833.3363564241598	-1625.5951832225362	-261.92889963647235	844.2999360656376	-1001.3939475156785	-282.5681312309953	1063.9347298651628	-1057.296915917811	-493.244475769963	525.0854447643312	-1277.9020981006304	-264.6642822708406	1045.9013081163525	-1594.9547787557435	-72.81554879767674	112.69221504588734	-1484.7475702204217	-278.52553811356154	833.8042246096625	-1057.1861573012168	-466.22234838172966	1391.7832381095977	-1408.2459033085984	-203.02397614532143	1192.9536633735518	-1336.9195822804422	-475.4935228316571	1504.7577626708878	-1453.0049885615713	-507.58353959869186	1505.2856279522193	-1386.3111488288027	-433.4275196310624	1507.467307124762	-1288.3016983142238	-351.17523625113375	1503.0079559626658	-1452.405184235618	-289.23778863773714	1391.6921034331785	-1338.3643767555113	-220.73648424351242	1288.2896724292107	-1331.7211330573757	-189.68632966792933	1046.472234393953	-1356.2726048120653	-213.61307713051008	1181.6173566491864	-1339.346469804515	-353.93540442187907	1159.478696007051	-1575.7087632413968	-280.44140332346603	1156.8021644712646	-1627.3243860538828	-317.9103661404308	1245.1653960612787	-1146.617794280718	-219.92698426812692	1134.5518675646354	-1094.6694589197311	-320.3482338414584	974.5149569560108	-1419.510559050634	-398.3368308714497	1062.1633717570646	-1380.2986043453843	-409.7705243826932	1188.3909310226788	-1304.329992040816	-351.59647192623925	998.7952374494453	-1297.5185197198355	-397.9283833844664	1235.0861050894632	-1454.1670261561987	-284.81175987399286	662.0138852200784	-1419.4407972943723	-228.57125459797774	636.6241219438176	-1502.1864431747208	-429.53408113730495	621.9296120234442	-1283.1050115437984	-373.4872564253078	790.8758225622823	-1136.709107937826	-476.4620562111435	221.72939791304015	-1162.8950967790142	-465.76931083749344	366.2007156225401	-1279.4061877356564	-152.5385902191647	341.73270742796274	-1488.9349039890217	-173.78222268523274	292.2562937697487	-1397.4008539901636	-256.2849968944233	17.200104118607243	-1475.8899936266064	-235.92847229496402	16.155275383311746	-1497.1219886726262	-202.10930770321568	53.86033049541605	-1437.7276223987851	-183.44554637127686	53.95013102185919	-1472.8642740609619	-164.42139463960058	35.8844871964839	-1497.3798164226473	-634.0733359733878	68.32617164955072	-1195.6965560016317	-527.9600091202227	89.59995041220967	-1171.0763108654724	-627.2433880073481	68.10954091778795	-1180.3022343144573	-641.8244767355333	68.50347084199463	-1214.562154375761	-582.7492744946438	79.18991420879165	-1204.0756013613875	-550.0259078101976	87.40995621312054	-1232.8386458948812	
